<?xml version="1.0" encoding="UTF-8" standalone="no"?>
<!-- Created with Inkscape (http://www.inkscape.org/) -->

<svg
   xmlns:dc="http://purl.org/dc/elements/1.1/"
   xmlns:cc="http://creativecommons.org/ns#"
   xmlns:rdf="http://www.w3.org/1999/02/22-rdf-syntax-ns#"
   xmlns:svg="http://www.w3.org/2000/svg"
   xmlns="http://www.w3.org/2000/svg"
   xmlns:sodipodi="http://sodipodi.sourceforge.net/DTD/sodipodi-0.dtd"
   xmlns:inkscape="http://www.inkscape.org/namespaces/inkscape"
   width="364.8125"
   height="434.82544"
   id="svg2"
   version="1.1"
   inkscape:version="0.48.4 r9939"
   sodipodi:docname="SJPIICSS_Logo.svg">
  <defs
     id="defs4" />
  <sodipodi:namedview
     id="base"
     pagecolor="#ffffff"
     bordercolor="#666666"
     borderopacity="1.0"
     inkscape:pageopacity="0"
     inkscape:pageshadow="2"
     inkscape:zoom="0.7"
     inkscape:cx="502.15615"
     inkscape:cy="412.36136"
     inkscape:document-units="px"
     inkscape:current-layer="text3113"
     showgrid="false"
     showborder="true"
     fit-margin-top="0"
     fit-margin-left="0"
     fit-margin-right="0"
     fit-margin-bottom="0"
     inkscape:showpageshadow="true"
     borderlayer="false"
     inkscape:window-width="1280"
     inkscape:window-height="961"
     inkscape:window-x="-8"
     inkscape:window-y="-8"
     inkscape:window-maximized="1" />
  <metadata
     id="metadata7">
    <rdf:RDF>
      <cc:Work
         rdf:about="">
        <dc:format>image/svg+xml</dc:format>
        <dc:type
           rdf:resource="http://purl.org/dc/dcmitype/StillImage" />
        <dc:title />
      </cc:Work>
    </rdf:RDF>
  </metadata>
  <g
     inkscape:label="Layer 1"
     inkscape:groupmode="layer"
     id="layer1"
     transform="translate(-17.15625,-1.0808246)">
    <path
       style="fill:#202151;fill-opacity:1"
       d="m 151.00686,351.81451 c -0.89468,-0.0846 -3.29992,-0.4575 -5.34493,-0.82875 -2.04503,-0.37125 -4.92756,-0.89037 -6.40561,-1.15362 -3.77854,-0.67297 -13.48914,-4.88469 -16.96105,-7.3564 -4.02604,-2.86622 -9.4999,-8.44844 -12.15062,-12.39115 -4.6989,-6.98924 -8.25646,-20.76467 -7.55916,-29.27028 l 0.14788,-1.8039 2.30327,0.27279 c 1.2668,0.15004 2.47488,0.37885 2.68462,0.50847 0.20974,0.12963 0.51776,2.77257 0.68448,5.87317 0.16671,3.10061 0.63325,6.92538 1.03673,8.49948 1.02041,3.98085 3.57962,8.38048 6.88092,11.82922 3.23443,3.3789 11.96727,9.37172 15.65706,10.74453 10.17465,3.78552 24.96271,3.91864 35.17198,0.3166 2.78317,-0.98196 7.91578,-4.49915 11.7863,-8.07672 4.22422,-3.9045 8.0427,-9.01131 10.52911,-14.08161 3.73905,-7.62465 3.53945,-5.23972 3.73104,-44.58017 0.094,-19.29988 0.0296,-38.47008 -0.14317,-42.60046 l -0.31403,-7.50976 -5.41355,-0.39146 c -6.45682,-0.46689 -60.26598,-0.41693 -71.8759,0.0668 l -8.15283,0.33965 -1.57112,3.40048 c -0.86411,1.87025 -2.2295,4.3574 -3.0342,5.52698 l -1.46308,2.12652 -3.231114,0 -3.23112,0 0,-20.6826 0,-20.6826 1.97531,-0.0551 c 4.073994,-0.11363 4.096104,-0.0925 7.842924,7.464 2.31788,4.67465 3.21619,6.05414 4.1251,6.33471 1.37219,0.4236 80.40668,0.83929 82.61423,0.43453 l 1.51051,-0.27698 0,-42.19945 0,-42.19946 -1.41528,-2.83223 c -1.62358,-3.24909 -5.83608,-7.42564 -9.2181,-9.13943 -2.77468,-1.40604 -6.48273,-2.43625 -10.04922,-2.79199 -1.53376,-0.15298 -3.78211,-0.39775 -4.99636,-0.54393 l -2.20769,-0.26577 0,-2.944 0,-2.944001 2.44009,-0.29397 c 1.34205,-0.16169 20.3224,-0.219471 42.17856,-0.12841 45.18472,0.18825 41.69802,-0.112413 49.96359,4.308531 12.12805,6.48685 19.16891,13.36287 24.2694,23.70123 3.97348,8.05398 4.08585,8.51208 4.04693,16.49959 -0.0366,7.52114 -0.0858,7.80988 -2.92022,17.19678 -1.70318,5.6403 -3.1328,8.80191 -5.83421,12.9024 -5.74749,8.72412 -14.5501,15.52064 -24.90685,19.23061 -2.95914,1.06001 -3.433,1.08513 -23.12268,1.2252 l -20.10162,0.14301 0,5.32633 0,5.32631 40.4177,0 40.41772,0 2.79693,-5.46114 c 4.5051,-8.7964 4.03068,-8.2766 7.38565,-8.09231 l 2.86705,0.15746 0,20.87372 0,20.87371 -3.22024,0 c -2.30183,0 -3.42764,-0.2074 -3.94744,-0.72719 -0.39995,-0.39995 -2.00177,-3.01434 -3.55961,-5.80972 l -2.83243,-5.08253 -40.16267,0 c -22.08946,0 -40.19516,0.0522 -40.23488,0.11625 -0.0397,0.0639 -0.21362,19.77629 -0.38646,43.80529 -0.30549,42.46835 -0.3415,43.78467 -1.289,47.11009 -1.39166,4.88431 -2.74064,8.04477 -5.57929,13.07147 -3.12365,5.53136 -4.19465,6.9563 -7.98508,10.62395 -6.6094,6.3953 -10.49655,9.33018 -15.4319,11.65141 -10.04325,4.7236 -18.73815,6.30585 -29.21237,5.3159 z m 88.97487,-170.65395 c 3.44936,-1.27596 10.6434,-5.09092 14.8311,-7.86487 5.25801,-3.48293 9.252,-9.55133 11.54883,-17.54718 0.92604,-3.22377 1.06833,-4.76891 1.07003,-11.61944 0.002,-6.79026 -0.1482,-8.4567 -1.06594,-11.85183 -3.17622,-11.75028 -9.82082,-18.87683 -21.38201,-22.9329 l -4.04241,-1.41822 -14.5881,-0.18145 c -11.82084,-0.14704 -14.6628,-0.0636 -14.98195,0.43992 -0.21664,0.34177 -0.39708,17.21353 -0.401,37.4928 l -0.008,36.87142 13.12996,-0.1839 c 12.11225,-0.16964 13.34379,-0.26299 15.8886,-1.20435 l 0,0 z"
       id="path3287"
       inkscape:connector-curvature="0" />
    <path
       style="font-size:26.26317787px;font-style:normal;font-weight:normal;line-height:125%;letter-spacing:0px;word-spacing:0px;fill:#c3c3c3;fill-opacity:1;stroke:#202151;stroke-width:2;stroke-linecap:butt;stroke-linejoin:miter;stroke-miterlimit:4;stroke-opacity:1;stroke-dasharray:none;font-family:Sans"
       d="m 69.002666,111.72947 0.25,36.5 c -19.816994,8.9377 -42.655532,15.74435 -36.500003,43 -17.370282,-4.67153 -16.054318,-30.82555 -5.389736,-57.56868 6.124096,-15.35715 10.517603,-32.01463 12.139736,-47.681318 l 15.749999,49.249998 z"
       id="path4392"
       inkscape:connector-curvature="0"
       sodipodi:nodetypes="cccsccc" />
    <path
       style="font-size:26.26317787px;font-style:normal;font-weight:normal;line-height:125%;letter-spacing:0px;word-spacing:0px;fill:#c3c3c3;fill-opacity:1;stroke:#202151;stroke-width:2;stroke-linecap:butt;stroke-linejoin:miter;stroke-miterlimit:4;stroke-opacity:1;stroke-dasharray:none;font-family:Sans"
       d="m 64.002666,224.47947 c -15.276152,-23.56789 -23.098091,-48.18702 13,-79 -25.68509,10.32496 -54.595466,20.77479 -44.750003,47.25 z"
       id="path4394"
       inkscape:connector-curvature="0"
       sodipodi:nodetypes="cccc" />
    <path
       style="font-size:26.26317787px;font-style:normal;font-weight:normal;line-height:125%;letter-spacing:0px;word-spacing:0px;fill:#c3c3c3;fill-opacity:1;stroke:#202151;stroke-width:2.05455327;stroke-linecap:butt;stroke-linejoin:miter;stroke-miterlimit:4;stroke-opacity:1;stroke-dasharray:none;font-family:Sans"
       d="m 322.05144,113.22622 -0.26383,36.50001 c 20.91283,8.9377 45.01426,15.74435 38.51835,43 18.33081,-4.67154 16.94208,-30.82555 5.68778,-57.56869 -6.46275,-15.35715 -11.0992,-32.01462 -12.81104,-47.681314 l -16.62093,49.250004 z"
       id="path4392-2"
       inkscape:connector-curvature="0"
       sodipodi:nodetypes="cccsccc" />
    <path
       style="font-size:26.26317787px;font-style:normal;font-weight:normal;line-height:125%;letter-spacing:0px;word-spacing:0px;fill:#c3c3c3;fill-opacity:1;stroke:#202151;stroke-width:2.05455327;stroke-linecap:butt;stroke-linejoin:miter;stroke-miterlimit:4;stroke-opacity:1;stroke-dasharray:none;font-family:Sans"
       d="m 327.32792,225.97623 c 16.12088,-23.56789 24.37535,-48.18703 -13.71886,-79 27.1054,10.32495 57.61444,20.77479 47.22455,47.25 z"
       id="path4394-7"
       inkscape:connector-curvature="0"
       sodipodi:nodetypes="cccc" />
    <path
       style="font-size:26.26317787px;font-style:normal;font-weight:normal;line-height:125%;letter-spacing:0px;word-spacing:0px;fill:#c3c3c3;fill-opacity:1;stroke:#202151;stroke-width:2;stroke-linecap:butt;stroke-linejoin:miter;stroke-miterlimit:4;stroke-opacity:1;stroke-dasharray:none;font-family:Sans"
       d="M 56.00266,137.52522 38.502661,83.525223 C 95.865676,-2.1190872 204.12536,-20.497227 292.42816,29.667056 c 22.77086,12.935986 43.55455,32.080134 62.57451,53.858167 l -17.5,52.999997 c -10.10438,-12.52337 -15.00916,-22.92832 -22.79835,-33.0877 -8.0128,-10.451043 -18.89266,-20.580427 -28.14813,-27.996362 -18.7975,-15.061482 -37.51145,-24.60716 -55.63914,-29.608965 -11.59568,-3.199487 -25.88354,-5.755868 -36.9958,-5.683175 -17.91296,0.117188 -34.92379,4.309959 -50.1489,12.011367 -8.09845,4.096486 -13.15878,6.701613 -21.66691,11.016353 -10.05644,5.099935 -19.99032,14.288494 -28.835384,22.984576 -5.48467,5.392291 -15.20018,16.077046 -20.21922,22.901426 -7.04989,9.5857 -9.6593,19.21846 -17.048176,28.46248 z"
       id="path3622"
       inkscape:connector-curvature="0"
       sodipodi:nodetypes="ccsccssssssssc" />
    <path
       sodipodi:nodetypes="ccsccssssssssc"
       inkscape:connector-curvature="0"
       id="path4486"
       d="M 56.00266,137.52522 38.502661,83.525223 C 95.865676,-2.1190872 204.12536,-20.497227 292.42816,29.667056 c 22.77086,12.935986 43.55455,32.080134 62.57451,53.858167 l -17.5,52.999997 c -10.10438,-12.52337 -15.00916,-22.92832 -22.79835,-33.0877 -8.0128,-10.451043 -18.89266,-20.580427 -28.14813,-27.996362 -18.7975,-15.061482 -37.51145,-24.60716 -55.63914,-29.608965 -11.59568,-3.199487 -25.88354,-5.755868 -36.9958,-5.683175 -17.91296,0.117188 -34.92379,4.309959 -50.1489,12.011367 -8.09845,4.096486 -13.15878,6.701613 -21.66691,11.016353 -10.05644,5.099935 -19.99032,14.288494 -28.835384,22.984576 -5.48467,5.392291 -15.20018,16.077046 -20.21922,22.901426 -7.04989,9.5857 -9.6593,19.21846 -17.048176,28.46248 z"
       style="font-size:26.26317787px;font-style:normal;font-weight:normal;line-height:125%;letter-spacing:0px;word-spacing:0px;fill:#c3c3c3;fill-opacity:1;stroke:#202151;stroke-width:2;stroke-linecap:butt;stroke-linejoin:miter;stroke-miterlimit:4;stroke-opacity:1;stroke-dasharray:none;font-family:Sans" />
    <path
       style="font-size:26.26317787px;font-style:normal;font-weight:normal;line-height:125%;letter-spacing:0px;word-spacing:0px;fill:#c3c3c3;fill-opacity:1;stroke:#202151;stroke-width:2;stroke-linecap:butt;stroke-linejoin:miter;stroke-miterlimit:4;stroke-opacity:1;stroke-dasharray:none;font-family:Sans"
       d="m 315.38564,242.00353 33.14563,-8.3969 c 3.78963,18.89407 5.18543,38.01869 3.95223,62.44415 -9.50464,38.22176 -19.74719,74.03354 -55.15431,99.70206 -23.0294,24.32578 -56.96934,36.48914 -92.72047,39.14086 -45.5257,-2.792 -82.74218,-14.53327 -111.840514,-47.83326 -16.77825,-19.43431 -31.57853,-26.55291 -45.047721,-91.00966 -0.319361,-9.55841 -0.289674,-19.03626 0.231081,-28.4008 0.125995,-2.26573 0.280738,-4.52483 0.466236,-6.77681 0.646738,-7.85152 -3.145148,-9.99175 -1.665417,-17.65104 l 4.315894,-5.77569 29.246607,7.52569 c -2.67791,34.35311 0.82821,54.50542 8,82.50001 11.16196,23.74018 27.097714,46.09021 60.000004,60 16.67323,7.00629 32.07163,14.24036 55.5,16.29289 21.32123,-1.0766 41.02858,-11.6674 61,-21.29289 14.92982,-9.56576 29.21993,-22.01026 41.5,-43.5 5.08453,-12.87604 10.28371,-24.52936 14.00001,-52.00001 2.1156,-15.31648 -1.50051,-30.3044 -4.92926,-44.9686 z"
       id="path4598"
       inkscape:connector-curvature="0"
       sodipodi:nodetypes="cccccccsscccccccccc" />
    <path
       d="m 53.202772,253.60248 16.300954,0.67941 -0.13832,3.31849 -13.531796,-0.56399 -0.343913,8.25138 -2.769137,-0.11538 z"
       style="font-size:18.38422394px;font-style:normal;font-variant:normal;font-weight:bold;font-stretch:normal;line-height:125%;letter-spacing:0px;word-spacing:0px;fill:#202151;fill-opacity:1;stroke:none;font-family:Arial;-inkscape-font-specification:Arial Bold"
       id="path3135-9"
       inkscape:connector-curvature="0" />
    <path
       d="m 54.126322,290.591 -0.2464,-3.60468 3.629884,-1.68774 -0.448409,-6.56011 -3.820425,-1.09975 -0.240275,-3.51514 16.848389,5.27039 0.23951,3.50395 z m 6.075884,-6.54493 5.93537,-2.6776 -6.24144,-1.80029 z"
       style="font-size:18.38422394px;font-style:normal;font-variant:normal;font-weight:bold;font-stretch:normal;line-height:125%;letter-spacing:0px;word-spacing:0px;fill:#202151;fill-opacity:1;stroke:none;font-family:Arial;-inkscape-font-specification:Arial Bold"
       id="path3137-1"
       inkscape:connector-curvature="0" />
    <path
       d="m 70.802606,296.6311 0.75502,3.23442 -8.6761,2.02527 c -1.37682,0.32139 -2.25985,0.56976 -2.64908,0.74513 -0.62334,0.29145 -1.0727,0.74393 -1.34812,1.35747 -0.27545,0.61353 -0.30773,1.37195 -0.0969,2.27526 0.21426,0.91787 0.56338,1.56613 1.04737,1.94478 0.48399,0.37864 1.01021,0.55155 1.57869,0.51872 0.56845,-0.0329 1.48645,-0.1972 2.754,-0.49307 l 8.86186,-2.06864 0.75501,3.23441 -8.41385,1.96407 c -1.92318,0.44891 -3.30218,0.67862 -4.13702,0.68916 -0.83484,0.01 -1.58029,-0.1554 -2.23633,-0.49771 -0.65603,-0.34234 -1.23796,-0.86905 -1.74577,-1.58012 -0.507839,-0.71108 -0.909676,-1.7004 -1.205564,-2.96792 -0.3571,-1.5298 -0.45125,-2.73113 -0.282437,-3.60399 0.1688,-0.87286 0.481925,-1.60466 0.939362,-2.19539 0.457429,-0.59072 0.978749,-1.0312 1.563939,-1.32143 0.86856,-0.42553 2.19886,-0.84744 3.9909,-1.26575 z"
       style="font-size:18.38422394px;font-style:normal;font-variant:normal;font-weight:bold;font-stretch:normal;line-height:125%;letter-spacing:0px;word-spacing:0px;fill:#202151;fill-opacity:1;stroke:none;font-family:Arial;-inkscape-font-specification:Arial Bold"
       id="path3139-3"
       inkscape:connector-curvature="0" />
    <path
       d="m 78.191946,320.98039 1.25571,5.93918 c 0.28315,1.33933 0.39655,2.38196 0.3402,3.1279 -0.0785,1.00291 -0.40155,1.91608 -0.96908,2.73952 -0.56758,0.82341 -1.32837,1.51948 -2.28237,2.0882 -0.95402,0.56869 -2.18486,1.01243 -3.69251,1.33121 -1.32471,0.28007 -2.50125,0.35678 -3.52964,0.23017 -1.25611,-0.15497 -2.32536,-0.5291 -3.20775,-1.12242 -0.66806,-0.4475 -1.25713,-1.11812 -1.76723,-2.01188 -0.37852,-0.66928 -0.69467,-1.60405 -0.94844,-2.80432 l -1.29285,-6.11483 z m -2.03554,3.82516 -10.65977,2.25379 0.51296,2.42618 c 0.19186,0.90751 0.38161,1.55171 0.56916,1.93258 0.24315,0.49909 0.55883,0.88919 0.94705,1.1703 0.38819,0.2811 0.96595,0.45523 1.73328,0.52238 0.76732,0.0671 1.77307,-0.0309 3.01727,-0.29388 1.24418,-0.26306 2.17607,-0.57478 2.79567,-0.93515 0.61957,-0.36037 1.07421,-0.77763 1.36392,-1.25175 0.28969,-0.47415 0.43619,-1.02886 0.4395,-1.66416 0.006,-0.47545 -0.13027,-1.3755 -0.41034,-2.70019 z"
       style="font-size:18.38422394px;font-style:normal;font-variant:normal;font-weight:bold;font-stretch:normal;line-height:125%;letter-spacing:0px;word-spacing:0px;fill:#202151;fill-opacity:1;stroke:none;font-family:Arial;-inkscape-font-specification:Arial Bold"
       id="path3141-5"
       inkscape:connector-curvature="0" />
    <path
       d="m 72.035776,350.18094 14.21466,-8.27876 6.13847,10.5398 -2.40467,1.4005 -4.46691,-7.66971 -3.15127,1.83532 4.15633,7.13643 -2.39498,1.39485 -4.15631,-7.13643 -3.86879,2.25323 4.62503,7.9412 -2.39496,1.39486 z"
       style="font-size:18.38422394px;font-style:normal;font-variant:normal;font-weight:bold;font-stretch:normal;line-height:125%;letter-spacing:0px;word-spacing:0px;fill:#202151;fill-opacity:1;stroke:none;font-family:Arial;-inkscape-font-specification:Arial Bold"
       id="path3143-9"
       inkscape:connector-curvature="0" />
    <path
       d="m 88.575476,374.11005 9.97448,-9.34322 -3.33686,-3.56233 2.03093,-1.9024 8.936674,9.54047 -2.03094,1.9024 -3.3292,-3.55414 -9.974474,9.34322 z"
       style="font-size:18.38422394px;font-style:normal;font-variant:normal;font-weight:bold;font-stretch:normal;line-height:125%;letter-spacing:0px;word-spacing:0px;fill:#202151;fill-opacity:1;stroke:none;font-family:Arial;-inkscape-font-specification:Arial Bold"
       id="path3145-8"
       inkscape:connector-curvature="0" />
    <path
       d="m 113.18685,377.13589 2.75283,1.85834 -4.98486,7.3843 c -0.79104,1.1718 -1.26967,1.95432 -1.43588,2.34755 -0.2589,0.63752 -0.28074,1.27486 -0.0655,1.91202 0.21519,0.63718 0.7072,1.21524 1.47601,1.73424 0.7812,0.52736 1.47798,0.76534 2.09035,0.7139 0.61233,-0.0515 1.11577,-0.28245 1.5103,-0.69305 0.3945,-0.41059 0.95587,-1.15529 1.68416,-2.2341 l 5.09159,-7.54239 2.75282,1.85833 -4.83418,7.1611 c -1.10497,1.63681 -1.95993,2.74291 -2.56496,3.31825 -0.60502,0.57535 -1.26443,0.96055 -1.97823,1.15561 -0.71383,0.19504 -1.49867,0.20449 -2.35452,0.0284 -0.85587,-0.17614 -1.82319,-0.62834 -2.902,-1.35659 -1.30203,-0.87895 -2.18789,-1.69584 -2.65759,-2.45065 -0.46973,-0.75484 -0.7377,-1.50434 -0.80393,-2.24851 -0.0663,-0.74419 0.0165,-1.42165 0.2483,-2.03238 0.34755,-0.90257 1.03614,-2.11646 2.06577,-3.6417 z"
       style="font-size:18.38422394px;font-style:normal;font-variant:normal;font-weight:bold;font-stretch:normal;line-height:125%;letter-spacing:0px;word-spacing:0px;fill:#202151;fill-opacity:1;stroke:none;font-family:Arial;-inkscape-font-specification:Arial Bold"
       id="path3147-4"
       inkscape:connector-curvature="0" />
    <path
       d="m 126.41859,406.2444 8.52825,-14.0664 5.97773,3.62423 c 1.5032,0.9114 2.51885,1.69995 3.04693,2.36562 0.52804,0.66573 0.80092,1.44573 0.81862,2.33998 0.0176,0.89427 -0.22557,1.75721 -0.72972,2.58877 -0.63993,1.05548 -1.47858,1.73893 -2.51595,2.05038 -1.03741,0.31145 -2.22768,0.1825 -3.57083,-0.3869 0.3969,0.73052 0.66532,1.43126 0.80529,2.10225 0.13994,0.67096 0.21735,1.75891 0.23224,3.26385 l 0.0538,3.7855 -3.39665,-2.05935 -0.19761,-4.30575 c -0.066,-1.53595 -0.14713,-2.5277 -0.2432,-2.97524 -0.0961,-0.44754 -0.26245,-0.81521 -0.4991,-1.10305 -0.23669,-0.28779 -0.68123,-0.62951 -1.33368,-1.0251 l -0.5757,-0.34904 -3.56022,5.87219 z m 7.76163,-6.3955 2.10132,1.274 c 1.36248,0.82608 2.24818,1.28425 2.657,1.3747 0.40882,0.0904 0.79451,0.053 1.15707,-0.11212 0.36253,-0.16509 0.67179,-0.45874 0.92775,-0.88093 0.28699,-0.47335 0.39238,-0.93216 0.31619,-1.3764 -0.0763,-0.44422 -0.32135,-0.84436 -0.73536,-1.20035 -0.21092,-0.17157 -0.89204,-0.60646 -2.04344,-1.30452 l -2.21646,-1.34383 z"
       style="font-size:18.38422394px;font-style:normal;font-variant:normal;font-weight:bold;font-stretch:normal;line-height:125%;letter-spacing:0px;word-spacing:0px;fill:#202151;fill-opacity:1;stroke:none;font-family:Arial;-inkscape-font-specification:Arial Bold"
       id="path3149-0"
       inkscape:connector-curvature="0" />
    <path
       d="m 175.09545,408.66589 3.28946,0.36959 -1.16261,10.34782 c -0.15203,1.35298 -0.38795,2.38033 -0.70763,3.08213 -0.42657,0.9156 -1.09221,1.61426 -1.99696,2.09601 -0.90475,0.48174 -2.04475,0.64535 -3.42,0.49084 -1.61315,-0.18124 -2.80385,-0.77234 -3.57211,-1.77325 -0.76829,-1.0009 -1.05799,-2.37528 -0.86914,-4.12305 l 3.15113,-0.007 c -0.0681,0.94085 -0.005,1.6179 0.18957,2.03117 0.29084,0.62738 0.8005,0.98198 1.52903,1.06383 0.73593,0.0826 1.27991,-0.0689 1.63187,-0.45463 0.35198,-0.38576 0.60229,-1.24025 0.75098,-2.56347 z"
       style="font-size:18.38422394px;font-style:normal;font-variant:normal;font-weight:bold;font-stretch:normal;line-height:125%;letter-spacing:0px;word-spacing:0px;fill:#202151;fill-opacity:1;stroke:none;font-family:Arial;-inkscape-font-specification:Arial Bold"
       id="path3151-7"
       inkscape:connector-curvature="0" />
    <path
       d="m 189.84585,427.49503 -0.48905,-16.44248 12.19167,-0.36261 0.0828,2.78154 -8.87176,0.26387 0.10838,3.64515 8.25488,-0.24552 0.0824,2.77032 -8.2549,0.24553 0.1331,4.47515 9.1858,-0.27323 0.0824,2.77033 z"
       style="font-size:18.38422394px;font-style:normal;font-variant:normal;font-weight:bold;font-stretch:normal;line-height:125%;letter-spacing:0px;word-spacing:0px;fill:#202151;fill-opacity:1;stroke:none;font-family:Arial;-inkscape-font-specification:Arial Bold"
       id="path3153-6"
       inkscape:connector-curvature="0" />
    <path
       d="m 210.16986,421.90663 3.13934,-0.82859 c 0.36599,1.03944 0.88329,1.76249 1.5519,2.16915 0.66861,0.40669 1.50131,0.52904 2.49811,0.367 1.05585,-0.17161 1.81514,-0.52429 2.27786,-1.05801 0.46269,-0.5337 0.64544,-1.0996 0.54823,-1.6977 -0.0624,-0.38394 -0.22815,-0.69235 -0.4971,-0.92525 -0.26903,-0.2329 -0.70031,-0.40344 -1.29386,-0.51159 -0.40557,-0.0705 -1.31893,-0.16456 -2.7401,-0.28219 -1.82813,-0.15 -3.14822,-0.48487 -3.96025,-1.00467 -1.142,-0.7314 -1.81743,-1.73948 -2.02625,-3.02425 -0.13442,-0.82695 -0.0257,-1.63849 0.32616,-2.43463 0.35184,-0.7961 0.93834,-1.45416 1.75947,-1.97415 0.82115,-0.51996 1.85563,-0.88136 3.10348,-1.0842 2.03789,-0.33122 3.64445,-0.13382 4.81969,0.59214 1.17523,0.72604 1.9099,1.83059 2.20402,3.31366 l -3.25495,0.67684 c -0.27591,-0.81154 -0.6743,-1.36255 -1.19519,-1.65305 -0.52088,-0.29046 -1.2428,-0.3607 -2.16575,-0.2107 -0.9525,0.15484 -1.66645,0.47171 -2.14185,0.95064 -0.30622,0.30747 -0.42513,0.67165 -0.35672,1.0925 0.0624,0.38395 0.27825,0.68611 0.64754,0.9065 0.4699,0.27982 1.53287,0.47841 3.18896,0.59575 1.65606,0.11737 2.8989,0.3151 3.72854,0.5933 0.8296,0.2782 1.51708,0.73107 2.06245,1.3586 0.54535,0.62756 0.90143,1.4545 1.06827,2.48081 0.1512,0.93036 0.0344,1.84364 -0.35045,2.73984 -0.38485,0.89621 -1.01771,1.61865 -1.89861,2.16727 -0.88091,0.54865 -2.0265,0.93759 -3.43678,1.16683 -2.05266,0.33362 -3.70617,0.1155 -4.96056,-0.65454 -1.25437,-0.76996 -2.13625,-2.04575 -2.6456,-3.82731 z"
       style="font-size:18.38422394px;font-style:normal;font-variant:normal;font-weight:bold;font-stretch:normal;line-height:125%;letter-spacing:0px;word-spacing:0px;fill:#202151;fill-opacity:1;stroke:none;font-family:Arial;-inkscape-font-specification:Arial Bold"
       id="path3155-3"
       inkscape:connector-curvature="0" />
    <path
       d="m 226.4008,408.04278 3.1943,-0.90995 2.44086,8.56847 c 0.38733,1.35974 0.67795,2.22978 0.87181,2.61013 0.32114,0.60856 0.79477,1.0356 1.42085,1.28116 0.62609,0.24556 1.38519,0.24129 2.27729,-0.0129 0.90648,-0.25823 1.53716,-0.63818 1.89208,-1.13985 0.35487,-0.50165 0.50222,-1.0356 0.44207,-1.60184 -0.0601,-0.56621 -0.26859,-1.47524 -0.62517,-2.72705 l -2.49313,-8.75194 3.1943,-0.90992 2.36706,8.30946 c 0.54104,1.89934 0.83695,3.26565 0.88767,4.09904 0.0508,0.83336 -0.0791,1.58592 -0.3894,2.2577 -0.31035,0.67176 -0.80842,1.27837 -1.49418,1.81986 -0.6858,0.5415 -1.6546,0.99054 -2.90642,1.34714 -1.51082,0.43036 -2.70622,0.58227 -3.58619,0.45571 -0.88,-0.12655 -1.62601,-0.40406 -2.23809,-0.83251 -0.61207,-0.42845 -1.07716,-0.92794 -1.39525,-1.49849 -0.46686,-0.84705 -0.95237,-2.15546 -1.45654,-3.92529 z"
       style="font-size:18.38422394px;font-style:normal;font-variant:normal;font-weight:bold;font-stretch:normal;line-height:125%;letter-spacing:0px;word-spacing:0px;fill:#202151;fill-opacity:1;stroke:none;font-family:Arial;-inkscape-font-specification:Arial Bold"
       id="path3157-6"
       inkscape:connector-curvature="0" />
    <path
       d="m 247.80984,412.8891 2.82352,-1.60305 c 0.61938,0.91145 1.30423,1.47838 2.05453,1.70074 0.75032,0.22239 1.58663,0.12794 2.50897,-0.28335 0.977,-0.43565 1.621,-0.97056 1.932,-1.6048 0.31101,-0.63421 0.34313,-1.22801 0.0964,-1.78141 -0.15843,-0.35528 -0.39745,-0.6111 -0.71698,-0.76759 -0.3196,-0.15645 -0.78014,-0.21114 -1.3816,-0.16406 -0.41014,0.0355 -1.31722,0.17782 -2.72129,0.42715 -1.8058,0.322 -3.16761,0.33545 -4.0855,0.0404 -1.29096,-0.41537 -2.20148,-1.21746 -2.73158,-2.40626 -0.34122,-0.76519 -0.44343,-1.57756 -0.30663,-2.43716 0.13681,-0.85958 0.53575,-1.64563 1.1968,-2.35813 0.66105,-0.71247 1.5689,-1.32615 2.72353,-1.84105 1.88565,-0.84081 3.48932,-1.06037 4.81103,-0.65871 1.3217,0.40171 2.31417,1.28194 2.9774,2.64066 l -2.97405,1.48589 c -0.47406,-0.71414 -1,-1.14509 -1.57781,-1.29289 -0.5778,-0.14775 -1.2937,-0.0312 -2.1477,0.34955 -0.88135,0.39304 -1.49065,0.88179 -1.82795,1.46625 -0.2175,0.3755 -0.23945,0.75795 -0.0658,1.14738 0.15843,0.35527 0.4443,0.59227 0.85765,0.71101 0.52576,0.15051 1.60421,0.071 3.23531,-0.23866 1.63112,-0.30963 2.88324,-0.4359 3.7564,-0.37888 0.87315,0.057 1.65352,0.31928 2.34109,0.78665 0.68758,0.46744 1.2431,1.17598 1.66658,2.1256 0.38383,0.86088 0.50422,1.77369 0.3611,2.73845 -0.14313,0.9648 -0.57047,1.82494 -1.28198,2.5804 -0.71152,0.75548 -1.71975,1.42415 -3.02465,2.00605 -1.89934,0.84694 -3.55372,1.0584 -4.96319,0.6344 -1.40946,-0.424 -2.58796,-1.43215 -3.53556,-3.0245 z"
       style="font-size:18.38422394px;font-style:normal;font-variant:normal;font-weight:bold;font-stretch:normal;line-height:125%;letter-spacing:0px;word-spacing:0px;fill:#202151;fill-opacity:1;stroke:none;font-family:Arial;-inkscape-font-specification:Arial Bold"
       id="path3159-1"
       inkscape:connector-curvature="0" />
    <path
       d="m 288.70226,387.03633 3.11503,-1.3077 c 0.78657,1.6877 1.02462,3.2354 0.71415,4.64307 -0.31048,1.40773 -1.1383,2.68325 -2.48342,3.82663 -1.66431,1.41467 -3.51551,2.0089 -5.5536,1.78262 -2.03806,-0.22626 -3.89526,-1.32542 -5.57156,-3.29752 -1.7732,-2.08609 -2.61174,-4.16405 -2.51557,-6.23394 0.0961,-2.06984 1.02202,-3.85086 2.7775,-5.34306 1.53322,-1.30325 3.16377,-1.90873 4.89165,-1.81643 1.02537,0.0512 2.10692,0.4574 3.24457,1.21829 l -1.9963,2.72776 c -0.7005,-0.52377 -1.44575,-0.77391 -2.23574,-0.75042 -0.78996,0.0235 -1.52125,0.32115 -2.19381,0.89281 -0.92905,0.78974 -1.3994,1.76389 -1.4111,2.92249 -0.0112,1.15861 0.61718,2.4846 1.88651,3.9779 1.34687,1.58451 2.59112,2.47081 3.73279,2.6589 1.14165,0.18807 2.16845,-0.1055 3.0804,-0.88065 0.67256,-0.57168 1.0694,-1.27715 1.19051,-2.11645 0.12113,-0.83929 -0.10287,-1.80738 -0.67201,-2.9043 z"
       style="font-size:18.38422394px;font-style:normal;font-variant:normal;font-weight:bold;font-stretch:normal;line-height:125%;letter-spacing:0px;word-spacing:0px;fill:#202151;fill-opacity:1;stroke:none;font-family:Arial;-inkscape-font-specification:Arial Bold"
       id="path3161-5"
       inkscape:connector-curvature="0" />
    <path
       d="m 302.78241,382.51109 -12.8776,-10.2353 2.0666,-2.60011 5.06848,4.02849 4.04943,-5.09483 -5.06846,-4.0285 2.0666,-2.60012 12.87761,10.2353 -2.06661,2.60012 -5.63065,-4.47531 -4.04945,5.09482 5.63066,4.47533 z"
       style="font-size:18.38422394px;font-style:normal;font-variant:normal;font-weight:bold;font-stretch:normal;line-height:125%;letter-spacing:0px;word-spacing:0px;fill:#202151;fill-opacity:1;stroke:none;font-family:Arial;-inkscape-font-specification:Arial Bold"
       id="path3163-4"
       inkscape:connector-curvature="0" />
    <path
       d="m 317.87967,363.33423 -14.12621,-8.42879 3.58195,-6.00316 c 0.90078,-1.50959 1.68213,-2.53078 2.34408,-3.06354 0.66197,-0.53272 1.44002,-0.8111 2.33413,-0.83512 0.89414,-0.0239 1.75877,0.21311 2.59385,0.71145 1.05997,0.63247 1.74934,1.46626 2.0681,2.50142 0.31877,1.03519 0.19819,2.22634 -0.36171,3.57346 0.72771,-0.40203 1.42655,-0.67541 2.09651,-0.82008 0.66997,-0.14468 1.75734,-0.22978 3.26214,-0.25528 l 3.78501,-0.0805 -2.03531,3.41111 -4.30425,0.22798 c -1.53545,0.0769 -2.5266,0.16496 -2.97345,0.26419 -0.44685,0.0992 -0.81335,0.26821 -1.0995,0.50687 -0.2861,0.23871 -0.6247,0.68565 -1.01569,1.34088 l -0.34496,0.57815 5.89718,3.51871 z m -6.45008,-7.7163 1.25912,-2.11028 c 0.81645,-1.36827 1.26836,-2.25718 1.35595,-2.66662 0.0875,-0.40945 0.0474,-0.79488 -0.12025,-1.15626 -0.16765,-0.36135 -0.46349,-0.66853 -0.88745,-0.92152 -0.47539,-0.28363 -0.9349,-0.38577 -1.3786,-0.30646 -0.4437,0.0794 -0.84209,0.32731 -1.19515,0.74383 -0.17009,0.21211 -0.60015,0.89628 -1.29009,2.05258 l -1.32813,2.22589 z"
       style="font-size:18.38422394px;font-style:normal;font-variant:normal;font-weight:bold;font-stretch:normal;line-height:125%;letter-spacing:0px;word-spacing:0px;fill:#202151;fill-opacity:1;stroke:none;font-family:Arial;-inkscape-font-specification:Arial Bold"
       id="path3165-2"
       inkscape:connector-curvature="0" />
    <path
       d="m 329.63507,343.42497 -14.94471,-6.87383 1.3879,-3.0175 14.94471,6.87383 z"
       style="font-size:18.38422394px;font-style:normal;font-variant:normal;font-weight:bold;font-stretch:normal;line-height:125%;letter-spacing:0px;word-spacing:0px;fill:#202151;fill-opacity:1;stroke:none;font-family:Arial;-inkscape-font-specification:Arial Bold"
       id="path3167-0"
       inkscape:connector-curvature="0" />
    <path
       d="m 331.48116,328.06727 0.4663,-3.21319 c 1.09975,0.07 1.9676,-0.123 2.60351,-0.57908 0.63594,-0.45608 1.07444,-1.17446 1.31549,-2.15515 0.25535,-1.03878 0.228,-1.87553 -0.082,-2.51025 -0.31004,-0.63467 -0.75925,-1.02433 -1.34765,-1.16898 -0.37775,-0.0929 -0.72644,-0.061 -1.04604,0.0952 -0.31961,0.15641 -0.64533,0.48653 -0.97716,0.9904 -0.22362,0.34561 -0.66767,1.14928 -1.33219,2.41105 -0.85356,1.62355 -1.67841,2.70723 -2.47458,3.25105 -1.12003,0.76462 -2.31203,0.99158 -3.57605,0.68087 -0.81358,-0.19997 -1.51783,-0.61767 -2.11273,-1.25305 -0.59487,-0.63537 -0.97085,-1.43265 -1.12797,-2.3918 -0.15708,-0.95915 -0.0847,-2.05256 0.21702,-3.28024 0.49283,-2.00493 1.3033,-3.40607 2.43135,-4.2034 1.1281,-0.7973 2.43208,-1.04102 3.91195,-0.7312 l -0.65115,3.26018 c -0.8548,-0.0638 -1.51777,0.0872 -1.98899,0.45281 -0.47116,0.36565 -0.81836,1.00249 -1.04156,1.91051 -0.23035,0.93712 -0.21819,1.71813 0.0365,2.34305 0.16308,0.40214 0.45165,0.65409 0.8657,0.75588 0.37775,0.0929 0.7403,0.0125 1.08761,-0.24106 0.44144,-0.32288 1.04024,-1.22333 1.7964,-2.70137 0.75619,-1.47801 1.42464,-2.5443 2.00534,-3.19883 0.58073,-0.65453 1.26655,-1.10992 2.0575,-1.36617 0.79093,-0.25618 1.69126,-0.26021 2.701,-0.0125 0.9153,0.22502 1.71,0.68997 2.38408,1.39488 0.67408,0.70494 1.09117,1.57007 1.25123,2.59542 0.1601,1.02537 0.0696,2.23179 -0.27145,3.61928 -0.4964,2.01949 -1.34436,3.45567 -2.5439,4.3086 -1.19951,0.85295 -2.71866,1.1651 -4.55748,0.93651 z"
       style="font-size:18.38422394px;font-style:normal;font-variant:normal;font-weight:bold;font-stretch:normal;line-height:125%;letter-spacing:0px;word-spacing:0px;fill:#202151;fill-opacity:1;stroke:none;font-family:Arial;-inkscape-font-specification:Arial Bold"
       id="path3169-9"
       inkscape:connector-curvature="0" />
    <path
       d="m 343.16987,304.30915 -13.37551,-2.80743 -1.00265,4.77696 -2.72344,-0.57163 2.68529,-12.7935 2.72343,0.57164 -1.00035,4.76598 13.37552,2.80745 z"
       style="font-size:18.38422394px;font-style:normal;font-variant:normal;font-weight:bold;font-stretch:normal;line-height:125%;letter-spacing:0px;word-spacing:0px;fill:#202151;fill-opacity:1;stroke:none;font-family:Arial;-inkscape-font-specification:Arial Bold"
       id="path3171-7"
       inkscape:connector-curvature="0"
       inkscape:transform-center-x="-4.5221898"
       inkscape:transform-center-y="3.4705167" />
    <path
       d="m 329.45466,285.23203 0.11088,-3.31951 8.90438,0.2974 c 1.41304,0.0473 2.33027,0.0366 2.75169,-0.0315 0.67763,-0.11963 1.2291,-0.43983 1.65441,-0.96079 0.42532,-0.52095 0.65345,-1.24496 0.68442,-2.17204 0.0315,-0.94201 -0.13733,-1.6587 -0.50638,-2.15006 -0.36904,-0.49134 -0.83232,-0.79498 -1.3898,-0.91091 -0.55749,-0.11588 -1.48667,-0.19559 -2.78757,-0.23904 l -9.09503,-0.30378 0.11088,-3.31952 8.63525,0.28841 c 1.97376,0.066 3.36511,0.2022 4.17405,0.40886 0.80891,0.20667 1.4857,0.56048 2.03033,1.06142 0.54462,0.50096 0.9698,1.16072 1.27552,1.97927 0.30575,0.81858 0.43688,1.8783 0.39343,3.17918 -0.0524,1.57005 -0.2735,2.75462 -0.66322,3.55368 -0.38968,0.79909 -0.88211,1.42445 -1.47726,1.8761 -0.59515,0.45167 -1.21297,0.74165 -1.85345,0.86995 -0.94929,0.18537 -2.3435,0.24732 -4.1827,0.18589 z"
       style="font-size:18.38422394px;font-style:normal;font-variant:normal;font-weight:bold;font-stretch:normal;line-height:125%;letter-spacing:0px;word-spacing:0px;fill:#202151;fill-opacity:1;stroke:none;font-family:Arial;-inkscape-font-specification:Arial Bold"
       id="path3173-3"
       inkscape:connector-curvature="0" />
    <path
       d="m 340.47442,265.34095 -0.45355,-3.21501 c 1.07525,-0.24122 1.85417,-0.66981 2.33665,-1.28595 0.48254,-0.61614 0.70197,-1.42866 0.65832,-2.43761 -0.0462,-1.06871 -0.30712,-1.8642 -0.78272,-2.38649 -0.47558,-0.52227 -1.01605,-0.77031 -1.62141,-0.74415 -0.38862,0.0169 -0.71439,0.14515 -0.97732,0.38484 -0.26293,0.23974 -0.483,0.64799 -0.66022,1.22469 -0.11775,0.39445 -0.31856,1.29041 -0.60256,2.68788 -0.364,1.79779 -0.85185,3.0693 -1.46355,3.81457 -0.86067,1.04803 -1.9412,1.60018 -3.24162,1.65643 -0.83702,0.0362 -1.63013,-0.16722 -2.37935,-0.61028 -0.74918,-0.44305 -1.33368,-1.10289 -1.75348,-1.97949 -0.41975,-0.8766 -0.65695,-1.94643 -0.71155,-3.20948 -0.0892,-2.06268 0.2958,-3.63488 1.15498,-4.71657 0.85922,-1.08166 2.04253,-1.6813 3.54992,-1.79893 l 0.28925,3.31197 c -0.83837,0.17855 -1.4324,0.50933 -1.78217,0.99242 -0.34972,0.48313 -0.50438,1.19176 -0.464,2.12596 0.0418,0.96409 0.2724,1.71035 0.69208,2.23879 0.26932,0.34028 0.61697,0.50119 1.04294,0.48276 0.38863,-0.0169 0.7141,-0.19561 0.97638,-0.5364 0.33317,-0.43371 0.65542,-1.46595 0.96675,-3.09673 0.31133,-1.63077 0.65392,-2.84174 1.02777,-3.63287 0.37386,-0.79113 0.90446,-1.42057 1.5918,-1.88832 0.68736,-0.46774 1.55043,-0.72409 2.58926,-0.76903 0.94167,-0.0408 1.83485,0.18272 2.67959,0.67028 0.84471,0.48762 1.48768,1.20107 1.92888,2.1404 0.44122,0.93932 0.6927,2.12271 0.75443,3.55015 0.0899,2.07766 -0.3213,3.69404 -1.2335,4.84914 -0.9122,1.1551 -2.28285,1.88077 -4.11196,2.17701 z"
       style="font-size:18.38422394px;font-style:normal;font-variant:normal;font-weight:bold;font-stretch:normal;line-height:125%;letter-spacing:0px;word-spacing:0px;fill:#202151;fill-opacity:1;stroke:none;font-family:Arial;-inkscape-font-specification:Arial Bold"
       id="path3175-7"
       inkscape:connector-curvature="0" />
    <path
       style="fill:#c3c3c3;fill-opacity:1;stroke:#202151;stroke-width:2.0031724;stroke-linecap:butt;stroke-linejoin:miter;stroke-miterlimit:4;stroke-opacity:1;stroke-dasharray:none"
       d="m 349.23885,233.52786 27.71071,15.70116 -5.93958,7.79794 8.90937,19.7335 -27.83799,-13.44484 c -0.88752,-6.50418 -2.79672,-14.69278 -3.08541,-24.17565 -0.0537,-1.76425 -0.22815,-3.57328 -0.15265,-5.42461 z"
       id="path3968"
       inkscape:connector-curvature="0"
       sodipodi:nodetypes="cccccscc" />
    <path
       style="fill:#c3c3c3;fill-opacity:1;stroke:#202151;stroke-width:1.94046474;stroke-linecap:butt;stroke-linejoin:miter;stroke-miterlimit:4;stroke-opacity:1;stroke-dasharray:none"
       d="m 49.74125,237.96362 -27.864138,15.54863 5.635128,7.71271 -8.452684,19.51784 28.513494,-12.92728 c 0.587615,-7.80521 1.298474,-15.80511 1.762846,-23.25611 l 0.277985,-3.71352 z"
       id="path3968-1"
       inkscape:connector-curvature="0"
       sodipodi:nodetypes="cccccccc" />
    <g
       style="font-size:24.73669815px;font-style:normal;font-variant:normal;font-weight:bold;font-stretch:normal;line-height:125%;letter-spacing:0px;word-spacing:0px;fill:#202151;fill-opacity:1;stroke:none;font-family:Helvetica Narrow;-inkscape-font-specification:Sans Bold"
       id="text3113"
       transform="matrix(1.0219322,0.01124924,-0.01033797,1.1120134,1.4959149,37.616401)">
      <path
         d="m 63.529099,34.656537 0,0 c -0.566608,-0.630825 -1.268943,-0.936276 -2.107007,-0.916354 -0.838062,0.01996 -1.687887,0.361349 -2.549477,1.024185 -0.746705,0.574487 -1.204236,1.188092 -1.372595,1.840817 -0.168351,0.652753 -0.02667,1.2727 0.42505,1.859843 0.324065,0.421233 0.794658,0.577326 1.411783,0.468279 0.610748,-0.104095 1.741636,-0.542366 3.392677,-1.314767 2.40218,-1.116583 4.178674,-1.640063 5.329489,-1.570441 1.145894,0.06327 2.224574,0.75226 3.236043,2.066963 1.016361,1.321113 1.302687,2.76954 0.858979,4.34529 -0.44373,1.575766 -1.552705,3.046135 -3.326928,4.411111 -1.780618,1.369896 -3.488616,2.02863 -5.123996,1.976204 -1.635386,-0.05242 -3.072469,-0.811099 -4.311256,-2.27604 l 0,0 2.833665,-2.180042 0,0 c 0.606382,0.722163 1.31952,1.087881 2.139423,1.097149 0.819898,0.0093 1.686169,-0.337148 2.598817,-1.039287 0.938166,-0.721763 1.553902,-1.436761 1.847208,-2.144998 0.293293,-0.708216 0.233723,-1.330378 -0.178716,-1.866487 -0.407537,-0.529704 -0.895319,-0.774168 -1.463349,-0.733393 -0.561656,0.03591 -1.551896,0.386254 -2.970716,1.051095 -2.616725,1.220705 -4.525036,1.830358 -5.724939,1.828956 -1.188606,8.9e-5 -2.251815,-0.609366 -3.189632,-1.828361 -1.050733,-1.365762 -1.389593,-2.829653 -1.016577,-4.391673 0.373031,-1.561991 1.401982,-2.991115 3.086857,-4.287377 1.576389,-1.21275 3.178345,-1.784823 4.805874,-1.716218 1.627529,0.06865 3.038096,0.766448 4.231707,2.093406 l 0,0 z"
         style="fill:#202151;font-family:Helvetica;-inkscape-font-specification:Helvetica Bold"
         id="path3118"
         inkscape:connector-curvature="0" />
      <path
         d="m 80.147053,37.035537 -8.924752,-11.558221 0,0 -4.244708,3.277576 0,0 -0.95965,-1.24282 -0.967033,-1.25238 0,0 11.424379,-8.821405 0,0 0.959652,1.24282 0.967032,1.252379 0,0 -4.244706,3.277578 0,0 8.924752,11.55822 0,0 -1.462703,1.129435 -1.472263,1.136818 z"
         style="fill:#202151;font-family:Helvetica;-inkscape-font-specification:Helvetica Bold"
         id="path3120"
         inkscape:connector-curvature="0" />
      <path
         d="m 86.089161,27.74288 3.070288,-2.057625 2.003832,2.990018 -3.070288,2.057626 z"
         style="fill:#202151;font-family:Helvetica;-inkscape-font-specification:Helvetica Bold"
         id="path3122"
         inkscape:connector-curvature="0"
         inkscape:transform-center-x="2.0796725"
         inkscape:transform-center-y="2.7441492" />
      <path
         d="m 99.208812,0.33743214 0,0 1.608608,-0.90968135 1.6191,-0.91562279 0,0 6.28451,11.1130359 c 0.88788,1.5700601 1.13819,2.9941861 0.75095,4.2723751 -0.38726,1.278206 -1.40096,2.381064 -3.04109,3.308575 -1.74528,0.986971 -3.27418,1.26878 -4.58666,0.845415 -1.31249,-0.423359 -2.461929,-1.572601 -3.448329,-3.447721 l -0.523215,-0.92521 3.070014,-1.736123 0.52321,0.92521 c 0.50312,0.955082 1.03494,1.572465 1.5955,1.852128 0.56056,0.279673 1.17377,0.231233 1.83964,-0.145326 0.63784,-0.360697 1.00203,-0.784047 1.0926,-1.270049 0.0906,-0.485993 -0.0763,-1.10398 -0.50033,-1.85397 l 0,0 z"
         style="fill:#202151;font-family:Helvetica;-inkscape-font-specification:Helvetica Bold"
         id="path3124"
         inkscape:connector-curvature="0" />
      <path
         d="m 120.449,9.4485911 c -2.46325,0.8596829 -4.69554,0.7560509 -6.69687,-0.3109002 -2.00134,-1.0669467 -3.47031,-2.9422786 -4.40694,-5.6260023 -0.9552,-2.73692365 -0.98735,-5.1627555 -0.0964,-7.2775057 0.89091,-2.1147202 2.56799,-3.6019294 5.03123,-4.4616302 2.47845,-0.8649673 4.7224,-0.7462186 6.73189,0.3562477 2.00947,1.1025064 3.4918,3.0222166 4.44702,5.7591338 0.93661,2.68372915 0.9554,5.0651835 0.0564,7.1443747 -0.89907,2.0792048 -2.58782,3.5512985 -5.06625,4.4162825 z m -1.03878,-2.9764162 c 1.42928,-0.4988234 2.36843,-1.4001395 2.81743,-2.7039486 0.44899,-1.3037928 0.35642,-2.86420595 -0.27772,-4.68123627 -0.64742,-1.85502063 -1.55715,-3.16648583 -2.72918,-3.93440643 -1.17203,-0.7678889 -2.4727,-0.9024265 -3.90198,-0.403614 -1.4217,0.4961917 -2.3524,1.4094839 -2.79211,2.7398806 -0.43971,1.3304257 -0.33586,2.9231469 0.31157,4.778167 0.63413,1.8170305 1.53069,3.0968505 2.68963,3.8394669 1.15895,0.7426249 2.45306,0.8645237 3.88236,0.3656908 z"
         style="fill:#202151;font-family:Helvetica;-inkscape-font-specification:Helvetica Bold"
         id="path3126"
         inkscape:connector-curvature="0" />
      <path
         d="m 130.57459,4.2851179 -5.95778,-16.7259449 0,0 1.74087,-0.620096 1.75225,-0.624147 0,0 2.23314,6.2693852 0,0 6.54247,-2.330423 0,0 -2.23316,-6.2693842 0,0 1.74086,-0.620093 1.75224,-0.62415 0,0 5.95779,16.72594599 0,0 -1.74087,0.62009637 -1.75225,0.62414659 0,0 -2.69923,-7.57787685 0,0 -6.54246,2.3304211 0,0 2.69923,7.5778769 0,0 -1.74085,0.6200922 -1.75225,0.6241506 z"
         style="fill:#202151;font-family:Helvetica;-inkscape-font-specification:Helvetica Bold"
         id="path3128"
         inkscape:connector-curvature="0" />
      <path
         d="m 150.53737,-2.3846436 0,0 -1.67973,0.4022079 -1.69149,0.4050214 0,0 -4.13458,-17.2672387 0,0 1.89117,-0.452834 1.89117,-0.452836 0,0 9.83022,10.4510984 0,0 0,0 -2.89983,-12.1105594 0,0 1.67973,-0.402208 1.6915,-0.405021 0,0 4.13458,17.2672379 -1.79721,0.4303358 -1.7972,0.4303332 -10.09691,-10.7349959 0,0 0,0 z"
         style="fill:#202151;font-family:Helvetica;-inkscape-font-specification:Helvetica Bold"
         id="path3130"
         inkscape:connector-curvature="0" />
      <path
         d="m 175.25356,-7.9941402 -0.0426,-17.7552938 0,0 1.848,-0.0044 0,0 5.58025,-0.01338 c 2.0211,-0.0048 3.56021,0.464555 4.61735,1.408153 1.05711,0.94363 1.58783,2.321317 1.5922,4.133068 0.005,1.916454 -0.51936,3.373169 -1.57181,4.370148 -1.05248,0.996993 -2.58927,1.497909 -4.61038,1.502748 -1.43333,-0.0046 -2.67337,0.0064 -3.72009,0.03308 l 0,0 0.0151,6.3170195 0,0 -1.84799,0.00443 -1.86008,0.00446 z m 3.68555,-9.4059108 0,0 3.09208,-0.0074 c 1.03873,-0.0025 1.81723,-0.233839 2.33552,-0.694075 0.51826,-0.460215 0.77628,-1.153334 0.77408,-2.079357 -0.002,-0.845477 -0.26325,-1.478973 -0.78362,-1.900487 -0.5204,-0.421485 -1.29996,-0.630988 -2.3387,-0.628512 l -3.09207,0.0074 0,0 z"
         style="fill:#202151;font-family:Helvetica;-inkscape-font-specification:Helvetica Bold"
         id="path3132"
         inkscape:connector-curvature="0" />
      <path
         d="m 188.37094,-8.0137319 8.1263,-16.9901131 2.13787,0.227748 2.13786,0.227748 4.37664,18.3220552 0,0 -1.95771,-0.2085554 -1.95771,-0.2085559 0,0 -0.80648,-3.7178109 0,0 -6.70186,-0.71395 0,0 -1.54758,3.467031 0,0 -1.89766,-0.2021586 -1.90967,-0.2034383 z m 9.79773,-12.8400471 -3.09821,6.84871 0,0 4.69611,0.500278 0,0 -1.5979,-7.348988 0,0 z"
         style="fill:#202151;font-family:Helvetica;-inkscape-font-specification:Helvetica Bold"
         id="path3134"
         inkscape:connector-curvature="0" />
      <path
         d="m 221.72072,-11.817122 c -0.17311,2.5305794 -0.85992,4.315985 -2.06054,5.356215 -1.20064,1.0402307 -3.06595,1.469798 -5.59594,1.2887026 -2.42561,-0.1736231 -4.18089,-0.8865686 -5.26585,-2.1388377 -1.08498,-1.2522689 -1.54438,-3.0955019 -1.37821,-5.5297039 l 0.78992,-11.035641 0,0 1.84329,0.131942 1.85533,0.132804 0,0 -0.79854,11.156116 c -0.0908,1.269024 0.12816,2.24134 0.65702,2.9169501 0.52885,0.6756166 1.37157,1.0548178 2.52814,1.1376036 1.23688,0.088532 2.14122,-0.1393744 2.713,-0.6837354 0.57177,-0.5443552 0.90681,-1.5032483 1.00514,-2.8766853 l 0.79855,-11.156115 0,0 1.84328,0.131942 1.85534,0.132802 0,0 z"
         style="fill:#202151;font-family:Helvetica;-inkscape-font-specification:Helvetica Bold"
         id="path3136"
         inkscape:connector-curvature="0" />
      <path
         d="m 223.91915,-4.5962442 0,0 2.60948,-17.5625428 0,0 1.82793,0.271598 1.83988,0.273374 0,0 -2.14616,14.4442949 0,0 8.73348,1.2976407 0,0 -0.23077,1.5531502 -0.23255,1.5650972 0,0 z"
         style="fill:#202151;font-family:Helvetica;-inkscape-font-specification:Helvetica Bold"
         id="path3138"
         inkscape:connector-curvature="0" />
      <path
         d="m 247.1173,1.5018275 6.27439,-16.6097635 0,0 1.72877,0.653051 1.74007,0.657316 0,0 -6.27439,16.6097632 0,0 -1.72876,-0.6530474 -1.74008,-0.6573193 z"
         style="fill:#202151;font-family:Helvetica;-inkscape-font-specification:Helvetica Bold"
         id="path3140"
         inkscape:connector-curvature="0" />
      <path
         d="m 254.08815,4.1704888 6.37907,-16.5145418 0,0 1.72518,0.677408 1.73648,0.68184 0,0 -6.37907,16.5145415 0,0 -1.7252,-0.6774114 -1.73646,-0.6818363 z"
         style="fill:#202151;font-family:Helvetica;-inkscape-font-specification:Helvetica Bold"
         id="path3142"
         inkscape:connector-curvature="0" />
      <path
         d="m 285.77885,14.948961 0,0 c -1.27315,1.626696 -2.81476,2.589738 -4.6248,2.889134 -1.81009,0.299377 -3.62207,-0.112871 -5.43595,-1.236755 -2.12194,-1.31475 -3.36854,-3.067567 -3.73982,-5.25846 -0.37129,-2.190897 0.19161,-4.4944684 1.68873,-6.9107255 1.52679,-2.4641567 3.36328,-4.03308837 5.50947,-4.70679657 2.14617,-0.6736861 4.28023,-0.3531642 6.40217,0.9615676 1.79334,1.11117647 2.97864,2.51577187 3.55586,4.21378657 0.57719,1.6980292 0.45529,3.4388874 -0.36569,5.2225869 l 0,0 -3.16234,-1.9593887 0,0 c 0.40199,-0.8781583 0.45197,-1.7423581 0.14995,-2.5925993 -0.30207,-0.8502345 -0.91513,-1.5616287 -1.83917,-2.1341838 -1.1705,-0.725219 -2.37717,-0.8263614 -3.62003,-0.3034288 -1.24287,0.5229516 -2.37748,1.6126586 -3.40381,3.2691178 -1.00091,1.6154038 -1.45419,3.0846304 -1.35983,4.4076888 0.0943,1.323059 0.73017,2.349328 1.9075,3.078797 0.92406,0.572544 1.85096,0.777416 2.7807,0.614613 0.92972,-0.162811 1.72795,-0.667593 2.39471,-1.514345 l 0,0 z"
         style="fill:#202151;font-family:Helvetica;-inkscape-font-specification:Helvetica Bold"
         id="path3144"
         inkscape:connector-curvature="0" />
      <path
         d="m 286.55452,18.512926 3.14181,1.946665 -1.89577,3.059674 -3.14181,-1.946663 z"
         style="fill:#202151;font-family:Helvetica;-inkscape-font-specification:Helvetica Bold"
         id="path3146"
         inkscape:connector-curvature="0" />
      <path
         d="m 306.2122,21.644326 0,0 c 0.4434,-0.722751 0.53622,-1.483 0.2785,-2.280708 -0.25776,-0.797689 -0.82698,-1.515137 -1.7077,-2.152336 -0.76332,-0.552229 -1.48179,-0.816109 -2.15544,-0.791654 -0.67366,0.02447 -1.22761,0.33681 -1.66183,0.937002 -0.31154,0.430589 -0.32717,0.926146 -0.0469,1.486677 0.27371,0.555829 1.01581,1.515127 2.22634,2.877906 1.75434,1.98483 2.76195,3.538745 3.02288,4.661748 0.26563,1.116483 -0.0877,2.346685 -1.06002,3.690622 -0.97704,1.350445 -2.28399,2.037327 -3.92086,2.060639 -1.63688,0.0233 -3.36214,-0.621122 -5.1758,-1.933267 -1.82018,-1.316869 -2.93795,-2.76661 -3.35334,-4.349229 -0.41538,-1.582619 -0.0973,-3.176238 0.9543,-4.780856 l 0,0 2.89662,2.095661 0,0 c -0.51967,0.786867 -0.66715,1.574652 -0.44256,2.36326 0.22453,0.788598 0.80328,1.520381 1.73621,2.195332 0.959,0.693828 1.81973,1.080505 2.58216,1.160015 0.76242,0.07951 1.34185,-0.154746 1.73836,-0.702747 0.39172,-0.541495 0.48719,-1.078692 0.28634,-1.611605 -0.19432,-0.528194 -0.81213,-1.377685 -1.85343,-2.548481 -1.91523,-2.160851 -3.04299,-3.816591 -3.38329,-4.967229 -0.33852,-1.139382 -0.057,-2.332111 0.84452,-3.578189 1.01006,-1.39611 2.31687,-2.137749 3.92045,-2.224921 1.60355,-0.08715 3.2665,0.492305 4.98883,1.738358 1.61138,1.165835 2.61591,2.538606 3.01354,4.118303 0.39759,1.579707 0.1303,3.130573 -0.80188,4.652597 l 0,0 z"
         style="fill:#202151;font-family:Helvetica;-inkscape-font-specification:Helvetica Bold"
         id="path3148"
         inkscape:connector-curvature="0" />
      <path
         d="m 306.37988,32.663469 2.99447,2.166457 -2.10981,2.916201 -2.99449,-2.166459 z"
         style="fill:#202151;font-family:Helvetica;-inkscape-font-specification:Helvetica Bold"
         id="path3150"
         inkscape:connector-curvature="0" />
      <path
         d="m 325.76056,37.750333 0,0 c 0.52647,-0.664689 0.70932,-1.408436 0.54862,-2.23119 -0.16075,-0.822746 -0.64033,-1.60298 -1.43873,-2.340701 -0.69198,-0.63935 -1.37385,-0.987063 -2.04559,-1.043151 -0.67178,-0.05607 -1.25903,0.187947 -1.76176,0.732046 -0.36067,0.39035 -0.43533,0.880499 -0.22393,1.470471 0.20543,0.584507 0.82778,1.625486 1.86708,3.122953 1.505,2.179953 2.32005,3.842985 2.44513,4.989094 0.13052,1.140198 -0.36704,2.319461 -1.49276,3.537798 -1.13118,1.224235 -2.51073,1.750288 -4.13869,1.578152 -1.62797,-0.172153 -3.26404,-1.017806 -4.90818,-2.536945 -1.65009,-1.524629 -2.58692,-3.09737 -2.81052,-4.718242 -0.2236,-1.62087 0.28233,-3.165153 1.51786,-4.632858 l 0,0 2.62591,2.426271 0,0 c -0.60975,0.71932 -0.85024,1.483814 -0.72136,2.29358 0.12886,0.809761 0.61617,1.605359 1.46192,2.386798 0.86937,0.803287 1.67781,1.289881 2.42531,1.459783 0.74749,0.169902 1.35073,0.0064 1.80977,-0.490338 0.45355,-0.490887 0.61242,-1.01286 0.47658,-1.565929 -0.12992,-0.547607 -0.64196,-1.464736 -1.53616,-2.751402 -1.64375,-2.373912 -2.56593,-4.152375 -2.76651,-5.335388 -0.20016,-1.171632 0.22163,-2.322258 1.26538,-3.451882 1.16941,-1.265634 2.55538,-1.846065 4.1579,-1.741304 1.6025,0.104783 3.18442,0.878494 4.7458,2.321128 1.46079,1.349755 2.29436,2.832562 2.50068,4.448414 0.2063,1.61586 -0.24411,3.123762 -1.35122,4.5237 l 0,0 z"
         style="fill:#202151;font-family:Helvetica;-inkscape-font-specification:Helvetica Bold"
         id="path3152"
         inkscape:connector-curvature="0" />
      <path
         d="m 324.61242,48.71078 2.71462,2.508239 -2.44265,2.643662 -2.71465,-2.508241 z"
         style="fill:#202151;font-family:Helvetica;-inkscape-font-specification:Helvetica Bold"
         id="path3154"
         inkscape:connector-curvature="0" />
    </g>
  </g>
</svg>
